HIERARCHY
ROOT Hips
{
	OFFSET -98.4586 93.524 21.6304
	CHANNELS 6 Xposition Yposition Zposition Zrotation Xrotation Yrotation
	JOINT Spine
	{
		OFFSET 0 9.61096 0
		CHANNELS 3 Zrotation Xrotation Yrotation
		JOINT Spine1
		{
			OFFSET 0 9.61096 0
			CHANNELS 3 Zrotation Xrotation Yrotation
			JOINT Spine2
			{
				OFFSET 0 9.61096 0
				CHANNELS 3 Zrotation Xrotation Yrotation
				JOINT Spine3
				{
					OFFSET 0 9.61096 0
					CHANNELS 3 Zrotation Xrotation Yrotation
					JOINT LeftShoulder
					{
						OFFSET 1.5 7.45162 0
						CHANNELS 3 Zrotation Xrotation Yrotation
						JOINT LeftArm
						{
							OFFSET 13.8827 0 0
							CHANNELS 3 Zrotation Xrotation Yrotation
							JOINT LeftForeArm
							{
								OFFSET 27.9625 0 0
								CHANNELS 3 Zrotation Xrotation Yrotation
								JOINT LeftHand
								{
									OFFSET 22.178 0 0
									CHANNELS 3 Zrotation Xrotation Yrotation
									End Site
									{
										OFFSET 10 0 0
									}
								}
							}
						}
					}
					JOINT RightShoulder
					{
						OFFSET -1.49999 7.45162 0
						CHANNELS 3 Zrotation Xrotation Yrotation
						JOINT RightArm
						{
							OFFSET -13.8827 0 0
							CHANNELS 3 Zrotation Xrotation Yrotation
							JOINT RightForeArm
							{
								OFFSET -27.9625 0 0
								CHANNELS 3 Zrotation Xrotation Yrotation
								JOINT RightHand
								{
									OFFSET -22.178 0 0
									CHANNELS 3 Zrotation Xrotation Yrotation
									End Site
									{
										OFFSET -10 0 0
									}
								}
							}
						}
					}
					JOINT Neck
					{
						OFFSET 0 9.61096 0
						CHANNELS 3 Zrotation Xrotation Yrotation
						JOINT Head
						{
							OFFSET 0 9.64467 0
							CHANNELS 3 Zrotation Xrotation Yrotation
							End Site
							{
								OFFSET 0 15 0
							}
						}
					}
				}
			}
		}
	}
	JOINT LeftUpLeg
	{
		OFFSET 11.7021 0 0
		CHANNELS 3 Zrotation Xrotation Yrotation
		JOINT LeftLeg
		{
			OFFSET 0 -46.0068 0
			CHANNELS 3 Zrotation Xrotation Yrotation
			JOINT LeftFoot
			{
				OFFSET 0 -37.7985 0
				CHANNELS 3 Zrotation Xrotation Yrotation
				JOINT LeftToeBase
				{
					OFFSET 0 -6.40715 11.0975
					CHANNELS 3 Zrotation Xrotation Yrotation
					End Site
					{
						OFFSET 0 0 5
					}
				}
			}
		}
	}
	JOINT RightUpLeg
	{
		OFFSET -11.7021 0 0
		CHANNELS 3 Zrotation Xrotation Yrotation
		JOINT RightLeg
		{
			OFFSET 0 -46.0068 0
			CHANNELS 3 Zrotation Xrotation Yrotation
			JOINT RightFoot
			{
				OFFSET 0 -37.7985 0
				CHANNELS 3 Zrotation Xrotation Yrotation
				JOINT RightToeBase
				{
					OFFSET 0 -6.40715 11.0975
					CHANNELS 3 Zrotation Xrotation Yrotation
					End Site
					{
						OFFSET 0 0 5
					}
				}
			}
		}
	}
}
MOTION
Frames: 17
Frame Time: 0.0111111
-185.199 82.7926 136.118 1.72958 16.3725 31.4947 0.771453 0.639316 -0.534274 0.771453 0.639316 -0.534274 0.771453 0.639316 -0.534274 0.771453 0.639316 -0.534274 172.179 177.632 179.151 18.7458 3.89738 -6.05925 15.7021 -11.0754 -4.75306 171.584 -164.164 157 1.21867 2.60737 4.8665 19.7395 15.6225 -2.02003 161.358 -170.832 -173.777 147.338 -162.784 -174.703 160.768 -168.788 170.337 5.2125 6.84815 4.74157 12.4316 0.59769 2.3966 5.1489 1.83845 -1.5894 140.708 -162.42 -157.527 0.114925 -2.50122 0.119383 140.237 -130.948 164.16 13.7087 53.9735 -11.8134 10.8365 -9.5423 1.31935 0.0995293 -0.166585 0.128182
-185.221 82.7884 136.143 1.65769 16.3453 31.704 0.826151 0.646419 -0.497188 0.826151 0.646419 -0.497188 0.826151 0.646419 -0.497188 0.826151 0.646419 -0.497188 172.308 177.828 179.151 18.4041 3.88625 -6.17333 16.0259 -11.3264 -4.7924 171.609 -164.224 157.149 1.06803 2.66341 4.86672 20.1692 16.0925 -2.00047 161.018 -170.452 -174.182 147.748 -162.468 -174.544 160.445 -168.921 170.135 5.25841 6.77657 4.78238 12.5334 0.527271 2.28636 5.14868 1.83074 -1.58939 140.638 -162.451 -157.59 0.114994 -2.53416 0.119386 140.179 -131.044 164.046 13.7334 54.0427 -11.8334 11.3053 -9.5199 1.37606 0.100694 -0.687139 0.128191
-185.24 82.7838 136.16 1.59859 16.3769 31.9394 0.854958 0.635304 -0.470741 0.854958 0.635304 -0.470741 0.854958 0.635304 -0.470741 0.854958 0.635304 -0.470741 172.16 177.796 179.151 18.6377 3.69194 -6.20892 16.0886 -11.4108 -4.79722 171.428 -164.035 157.073 0.887797 2.5904 4.86643 20.5914 16.149 -2.0041 160.996 -170.384 -174.348 147.893 -162.425 -174.512 160.187 -169.089 169.879 5.31841 6.72508 4.8357 12.5808 0.385716 2.19009 5.14881 1.83525 -1.58939 140.674 -162.586 -157.625 0.115053 -2.56234 0.119388 140.06 -131.111 163.907 13.7665 54.1354 -11.8602 11.3632 -9.6138 1.22162 0.100733 -0.704569 0.128191
-185.258 82.78 136.185 1.54628 16.3416 32.1432 0.894807 0.640625 -0.45516 0.894807 0.640625 -0.45516 0.894807 0.640625 -0.45516 0.894807 0.640625 -0.45516 172.025 177.805 179.151 18.8574 3.5729 -6.19288 16.0964 -11.6931 -4.81897 171.319 -164.004 157.055 0.815398 2.62488 4.86656 20.7727 16.1709 -1.87449 161.065 -170.211 -174.464 147.688 -162.29 -174.786 159.949 -169.245 169.766 5.38377 6.72072 4.89075 12.668 0.322572 2.07795 5.14886 1.83699 -1.58939 140.6 -162.589 -157.659 0.114966 -2.52096 0.119385 140.06 -131.226 163.804 13.7875 54.1939 -11.8772 10.886 -9.79756 1.08856 0.0995926 -0.194854 0.128182
-185.269 82.7801 136.199 1.48238 16.3832 32.337 0.920751 0.621217 -0.437206 0.920751 0.621217 -0.437206 0.920751 0.621217 -0.437206 0.920751 0.621217 -0.437206 171.819 177.782 179.151 19.2355 3.31758 -6.1492 16.0693 -11.7429 -4.81552 170.579 -163.874 156.584 0.954506 2.80518 4.86729 20.6644 16.1112 -1.79329 161.174 -169.878 -174.498 147.851 -162.466 -174.61 159.78 -169.407 169.572 5.45901 6.67643 4.9511 12.7092 0.193228 1.92229 5.14976 1.86947 -1.58942 140.616 -162.628 -157.732 0.114943 -2.50953 0.119383 139.934 -131.276 163.624 13.8035 54.2384 -11.8902 10.9094 -9.8128 1.00177 0.0999268 -0.344232 0.128184
-185.283 82.7758 136.223 1.41667 16.3999 32.5233 0.944568 0.604804 -0.418906 0.944568 0.604804 -0.418906 0.944568 0.604804 -0.418906 0.944568 0.604804 -0.418906 171.64 177.729 179.151 19.6485 2.95338 -6.09366 15.8878 -11.9207 -4.93332 170.946 -163.946 156.981 1.04313 2.90452 4.86771 20.6471 16.0068 -1.68403 161.293 -170.029 -174.633 147.833 -162.244 -174.63 159.65 -169.604 169.351 5.50122 6.63785 4.98777 12.7705 0.0855974 1.82607 5.14996 1.87682 -1.58943 140.625 -162.715 -157.762 0.114853 -2.46681 0.11938 139.844 -131.335 163.464 13.8336 54.3217 -11.9146 10.9395 -9.94175 1.03505 0.0996366 -0.214554 0.128182
-185.289 82.7723 136.238 1.37322 16.4523 32.6714 0.964221 0.582774 -0.38875 0.964221 0.582774 -0.38875 0.964221 0.582774 -0.38875 0.964221 0.582774 -0.38875 171.54 177.692 179.151 19.979 2.66872 -6.11975 15.7639 -11.9187 -4.82912 170.645 -163.816 156.874 1.0207 2.97623 4.86803 20.8048 16.0891 -1.59543 161.312 -169.751 -174.843 147.924 -162.207 -174.716 159.438 -169.787 169.1 5.58773 6.59715 5.06167 12.7879 -0.0335195 1.72069 5.15069 1.90296 -1.58945 140.598 -162.721 -157.782 0.114891 -2.48461 0.119381 139.678 -131.343 163.293 13.8635 54.404 -11.9389 11.4047 -9.86275 1.0546 0.10082 -0.743521 0.128192
-185.285 82.7757 136.262 1.33594 16.478 32.8134 0.991653 0.578264 -0.365489 0.991653 0.578264 -0.365489 0.991653 0.578264 -0.365489 0.991653 0.578264 -0.365489 171.346 177.715 179.151 20.4516 2.38233 -6.05303 15.4748 -12.1668 -4.89584 170.969 -163.912 157.183 1.03263 2.9458 4.86789 20.9099 16.0373 -1.54307 161.377 -169.739 -174.938 147.673 -162.41 -174.938 159.203 -169.868 168.802 5.64411 6.57708 5.10511 12.8175 -0.0955395 1.58423 5.15039 1.89213 -1.58944 140.523 -162.71 -157.794 0.114916 -2.497 0.119382 139.606 -131.415 163.13 13.8714 54.4258 -11.9453 10.9451 -9.9653 0.961944 0.100088 -0.416438 0.128185
-185.291 82.7701 136.277 1.27402 16.5553 32.9241 1.01405 0.55442 -0.327535 1.01405 0.55442 -0.327535 1.01405 0.55442 -0.327535 1.01405 0.55442 -0.327535 171.235 177.694 179.151 20.8182 2.00536 -6.03412 15.3641 -12.1777 -4.81354 170.72 -163.909 157.128 0.821167 2.87548 4.86759 21.3421 15.926 -1.58639 161.383 -170.006 -174.944 148.122 -161.853 -174.619 158.966 -169.915 168.48 5.71334 6.59359 5.16209 12.8433 -0.222657 1.53029 5.1508 1.90711 -1.58946 140.419 -162.682 -157.821 0.114979 -2.52677 0.119385 139.49 -131.385 162.982 13.8922 54.4831 -11.9623 10.9187 -10.0251 0.894172 0.100141 -0.439875 0.128185
-185.309 82.7548 136.331 1.14728 16.563 33.1699 1.06006 0.517821 -0.334483 1.06006 0.517821 -0.334483 1.06006 0.517821 -0.334483 1.06006 0.517821 -0.334483 171.091 177.653 179.151 21.294 1.70489 -5.88286 15.0751 -12.3198 -4.95858 170.441 -163.714 157.024 1.07884 3.1228 4.86869 21.0975 15.8933 -1.49928 161.467 -169.653 -174.961 148.034 -161.976 -174.659 158.738 -170.056 168.209 5.75069 6.56473 5.19805 12.9705 -0.356954 1.43373 5.15167 1.9384 -1.58949 140.451 -162.773 -157.923 0.114866 -2.47299 0.11938 139.397 -131.464 162.734 13.9347 54.5991 -11.9968 11.0834 -10.1806 0.97897 0.100082 -0.413836 0.128185
-185.298 82.7507 136.361 1.11659 16.5821 33.2213 1.11126 0.493322 -0.289308 1.11126 0.493322 -0.289308 1.11126 0.493322 -0.289308 1.11126 0.493322 -0.289308 170.636 177.422 179.151 22.0764 0.970871 -5.89126 14.7826 -12.1946 -4.71095 170.185 -163.702 157.037 0.947327 3.10768 4.86862 21.2957 15.8514 -1.43205 161.513 -169.368 -175.161 147.875 -162.31 -174.475 158.235 -170.324 167.786 5.8674 6.45303 5.29908 12.9968 -0.3683 1.40353 5.15068 1.9026 -1.58945 140.38 -162.756 -157.922 0.114886 -2.48216 0.119381 139.359 -131.476 162.654 13.9539 54.6514 -12.0125 10.9443 -10.233 0.929628 0.099958 -0.358178 0.128184
-185.286 82.7358 136.401 1.07604 16.6049 33.2792 1.14772 0.484313 -0.262419 1.14772 0.484313 -0.262419 1.14772 0.484313 -0.262419 1.14772 0.484313 -0.262419 170.586 177.503 179.151 22.2886 0.578755 -5.70245 14.7902 -12.4865 -4.92334 169.906 -163.645 157.195 0.853963 3.1111 4.86864 21.587 15.8252 -1.34586 161.386 -169.117 -175.257 147.812 -162.285 -174.898 157.878 -170.334 167.362 5.96616 6.43154 5.38185 13.0209 -0.384812 1.37642 5.14991 1.87495 -1.58943 140.441 -162.844 -157.945 0.115075 -2.5731 0.119389 139.259 -131.487 162.416 13.9868 54.7406 -12.0394 10.8693 -10.2395 0.990648 0.100201 -0.466786 0.128186
-185.28 82.7358 136.423 1.00675 16.7114 33.2971 1.17836 0.444863 -0.225404 1.17836 0.444863 -0.225404 1.17836 0.444863 -0.225404 1.17836 0.444863 -0.225404 170.409 177.496 179.151 22.7816 0.0429605 -5.51238 14.5328 -12.7436 -5.05026 169.031 -163.4 156.721 0.871234 3.20064 4.86906 21.662 15.7533 -1.32332 161.49 -168.876 -175.192 147.525 -162.696 -175.301 157.538 -170.364 167.026 6.04011 6.42519 5.44174 13.0211 -0.480068 1.3505 5.14913 1.8469 -1.5894 140.431 -162.805 -157.887 0.114978 -2.52662 0.119385 139.158 -131.414 162.27 13.9859 54.7383 -12.0386 10.7945 -10.2619 1.06484 0.0998578 -0.313398 0.128183
-185.271 82.7228 136.471 0.972293 16.7279 33.3549 1.20552 0.450311 -0.214002 1.20552 0.450311 -0.214002 1.20552 0.450311 -0.214002 1.20552 0.450311 -0.214002 170.44 177.77 179.151 23.0299 -0.0996885 -5.31491 14.4639 -13.3553 -5.21154 168.853 -163.273 156.777 0.941742 3.17311 4.86893 21.6137 15.5664 -1.16472 161.724 -169.211 -175.352 147.344 -162.386 -175.521 157.277 -170.248 166.661 6.09183 6.40542 5.4814 13.0548 -0.500661 1.30118 5.1493 1.85284 -1.58941 140.386 -162.734 -157.868 0.114865 -2.47251 0.11938 139.084 -131.455 162.066 14.0068 54.7948 -12.0557 10.6413 -10.3291 1.1987 0.0999389 -0.349676 0.128184
-185.255 82.7166 136.488 0.879549 16.771 33.3096 1.27499 0.427512 -0.156866 1.27499 0.427512 -0.156866 1.27499 0.427512 -0.156866 1.27499 0.427512 -0.156866 170.12 177.762 179.151 23.6132 -0.541075 -5.29031 14.4852 -13.6426 -4.89006 168.014 -163.165 156.402 0.744511 3.13728 4.86876 21.8987 15.8312 -1.18407 161.705 -169.019 -175.436 147.746 -162.073 -175.147 156.743 -170.269 166.038 6.24091 6.3996 5.60739 13.0833 -0.535583 1.34179 5.14866 1.83005 -1.58939 140.516 -162.687 -157.785 0.114973 -2.5242 0.119385 139.101 -131.357 162.017 14.0084 54.799 -12.057 10.8224 -10.318 1.377 0.100076 -0.410933 0.128185
-185.238 82.7082 136.519 0.873289 16.8313 33.3168 1.29314 0.414941 -0.130108 1.29314 0.414941 -0.130108 1.29314 0.414941 -0.130108 1.29314 0.414941 -0.130108 170.037 177.814 179.151 24.1004 -1.00209 -5.12679 14.2729 -14.2141 -4.91419 167.4 -162.909 156.112 0.789431 3.21434 4.86912 21.9614 16.0396 -1.08307 161.795 -168.917 -175.601 147.406 -162.174 -175.746 156.424 -170.259 165.528 6.31505 6.39527 5.66966 13.0577 -0.573326 1.30879 5.14879 1.83464 -1.58939 140.508 -162.642 -157.721 0.114798 -2.44035 0.119377 138.941 -131.334 161.771 14.0337 54.8671 -12.0777 10.698 -10.3476 1.32055 0.0998859 -0.325948 0.128184
-185.228 82.6901 136.562 0.840187 16.8799 33.3336 1.32083 0.40321 -0.108402 1.32083 0.40321 -0.108402 1.32083 0.40321 -0.108402 1.32083 0.40321 -0.108402 169.925 177.877 179.151 24.6394 -1.69248 -4.901 13.9906 -14.8304 -5.09728 167.063 -162.9 156.149 0.774648 3.27381 4.86941 22.0395 16.0594 -0.923552 161.973 -168.887 -175.89 147.61 -162.039 -175.694 156.108 -170.212 165.007 6.38362 6.38315 5.72992 13.0665 -0.604511 1.30399 5.14876 1.83356 -1.58939 140.531 -162.649 -157.701 0.114949 -2.51261 0.119384 138.829 -131.307 161.565 14.0683 54.96 -12.106 10.7929 -10.4495 1.48048 0.100113 -0.427635 0.128185
